<?xml version="1.0" ?><svg enable-background="new 0 0 100 100" id="Livello_1" version="1.1" viewBox="0 0 100 100" xml:space="preserve" xmlns="http://www.w3.org/2000/svg" xmlns:xlink="http://www.w3.org/1999/xlink"><g><path d="M78.142,15.358H21.858c-3.584,0-6.5,2.916-6.5,6.5v56.283c0,3.584,2.916,6.5,6.5,6.5h30.473c0.276,0,0.5-0.224,0.5-0.5   V57.699c0-0.276-0.224-0.5-0.5-0.5h-8.399v-9.306h8.399c0.276,0,0.5-0.224,0.5-0.5v-7.6c0-8.217,4.768-13.123,12.754-13.123   c3.238,0,6.138,0.211,7.452,0.352v8.271l-4.957,0.003c-4.928,0-5.607,2.651-5.607,5.517v6.58c0,0.276,0.224,0.5,0.5,0.5h9.637   l-1.2,9.306h-8.437c-0.276,0-0.5,0.224-0.5,0.5v26.442c0,0.276,0.224,0.5,0.5,0.5h15.169c3.584,0,6.5-2.916,6.5-6.5V21.858   C84.642,18.274,81.726,15.358,78.142,15.358z M83.642,78.142c0,3.032-2.468,5.5-5.5,5.5H63.473V58.199h8.376   c0.251,0,0.464-0.187,0.496-0.437l1.329-10.306c0.019-0.143-0.025-0.286-0.121-0.394c-0.095-0.108-0.231-0.17-0.375-0.17h-9.705   v-6.08c0-2.86,0.754-4.517,4.607-4.517l5.457-0.003c0.276,0,0.5-0.224,0.5-0.5v-9.217c0-0.251-0.186-0.463-0.435-0.496   c-1.012-0.134-4.303-0.41-8.018-0.41c-8.483,0-13.754,5.412-13.754,14.123v7.1h-8.399c-0.276,0-0.5,0.224-0.5,0.5v10.306   c0,0.276,0.224,0.5,0.5,0.5h8.399v25.442H21.858c-3.032,0-5.5-2.468-5.5-5.5V21.858c0-3.032,2.468-5.5,5.5-5.5h56.283   c3.032,0,5.5,2.468,5.5,5.5V78.142z"/></g></svg>